<svg width="131" height="274" viewBox="0 0 131 274" fill="none" xmlns="http://www.w3.org/2000/svg">
<path d="M72.2 255.6V238.2H54V220.4H36V202.6H18V109.2H36V91.4H94V109.2H112.2V202.6H94V220.4H76V233.4H94V255.6H72.2ZM40 198H90V114H40V198Z" fill="white"/>
<path d="M68.0874 32.4388L76.6406 61.5863C76.9258 62.5501 77.4715 63.4165 78.2176 64.0898C78.9637 64.7632 79.8813 65.2176 80.8691 65.4027C81.857 65.5879 82.8768 65.4967 83.8162 65.1392C84.7555 64.7817 85.5779 64.1718 86.1927 63.3767L100.472 44.8074" stroke="white" stroke-width="2" stroke-linecap="round" stroke-linejoin="round"/>
<path d="M109.167 49.125L92.7915 98.25" stroke="white" stroke-width="2" stroke-linecap="round" stroke-linejoin="round"/>
<path d="M30.5337 44.8074L44.8072 63.3821C45.4224 64.1772 46.2452 64.7869 47.1849 65.144C48.1246 65.5011 49.1446 65.5918 50.1326 65.4061C51.1205 65.2204 52.038 64.7654 52.7838 64.0914C53.5296 63.4174 54.0748 62.5505 54.3593 61.5863L62.9125 32.4388" stroke="white" stroke-width="2" stroke-linecap="round" stroke-linejoin="round"/>
<path d="M38.2085 98.25L21.8335 49.125" stroke="white" stroke-width="2" stroke-linecap="round" stroke-linejoin="round"/>
<path d="M65.5002 32.75C71.5293 32.75 76.4168 27.8624 76.4168 21.8333C76.4168 15.8042 71.5293 10.9166 65.5002 10.9166C59.4711 10.9166 54.5835 15.8042 54.5835 21.8333C54.5835 27.8624 59.4711 32.75 65.5002 32.75Z" stroke="white" stroke-width="2" stroke-linecap="round" stroke-linejoin="round"/>
<path d="M109.167 49.125C115.196 49.125 120.083 44.2374 120.083 38.2083C120.083 32.1792 115.196 27.2916 109.167 27.2916C103.138 27.2916 98.25 32.1792 98.25 38.2083C98.25 44.2374 103.138 49.125 109.167 49.125Z" stroke="white" stroke-width="2" stroke-linecap="round" stroke-linejoin="round"/>
<path d="M21.8332 49.125C27.8623 49.125 32.7498 44.2374 32.7498 38.2083C32.7498 32.1792 27.8623 27.2916 21.8332 27.2916C15.8041 27.2916 10.9165 32.1792 10.9165 38.2083C10.9165 44.2374 15.8041 49.125 21.8332 49.125Z" stroke="white" stroke-width="2" stroke-linecap="round" stroke-linejoin="round"/>
</svg>
