<svg width="513" height="285" viewBox="0 0 513 285" fill="none" xmlns="http://www.w3.org/2000/svg">
<path d="M72.2 258.6V241.2H54V223.4H36V205.6H18V112.2H36V94.4H94V112.2H112.2V205.6H94V223.4H76V236.4H94V258.6H72.2ZM40 201H90V117H40V201ZM154.359 223.4V205.6H136.359V94.4H158.359V201H208.359V94.4H230.559V205.6H212.359V223.4H154.359ZM272.719 223.4V205.6H254.719V112.2H272.719V94.4H330.719V112.2H348.919V134.6H326.719V117H276.719V147.8H312.719V170H276.719V201H326.719V183H348.919V205.6H330.719V223.4H272.719Z" fill="white"/>
<path d="M415.8 231.96V223H444.6V217.72H423V210.6H415.8V201.72H423V194.52H453.48V203.48H424.6V208.68H446.2V215.8H453.48V224.84H446.2V231.96H415.8ZM477.544 231.96V224.84H470.344V203.48H463.144V194.52H470.344V180.36H479.064V194.52H500.824V203.48H479.064V223H499.224V215.8H508.024V224.84H500.824V231.96H477.544Z" fill="white"/>
<path d="M399 135.96V128.84H391.8V98.52H400.6V127H420.6V98.52H429.48V128.84H422.2V135.96H399ZM444.781 135.96V128.84H437.581V105.72H444.781V98.52H467.981V105.72H475.261V114.6H466.381V107.48H446.381V112.68H460.781V121.72H446.381V127H466.381V119.72H475.261V128.76H467.981V135.96H444.781Z" fill="white"/>
<path d="M389.2 263.96V221.4H383.6V228.44H374.8V219.48H382V212.36H390.72V219.48H398V263.96H389.2Z" fill="white"/>
<path d="M68.0874 32.4388L76.6406 61.5863C76.9258 62.5501 77.4715 63.4165 78.2176 64.0898C78.9637 64.7632 79.8813 65.2176 80.8691 65.4027C81.857 65.5879 82.8768 65.4967 83.8162 65.1392C84.7555 64.7817 85.5779 64.1718 86.1927 63.3767L100.472 44.8074" stroke="white" stroke-width="2" stroke-linecap="round" stroke-linejoin="round"/>
<path d="M109.167 49.125L92.7915 98.25" stroke="white" stroke-width="2" stroke-linecap="round" stroke-linejoin="round"/>
<path d="M30.5337 44.8074L44.8072 63.3821C45.4224 64.1772 46.2452 64.7869 47.1849 65.144C48.1246 65.5011 49.1446 65.5918 50.1326 65.4061C51.1205 65.2204 52.038 64.7654 52.7838 64.0914C53.5296 63.4174 54.0748 62.5505 54.3593 61.5863L62.9125 32.4388" stroke="white" stroke-width="2" stroke-linecap="round" stroke-linejoin="round"/>
<path d="M38.2085 98.25L21.8335 49.125" stroke="white" stroke-width="2" stroke-linecap="round" stroke-linejoin="round"/>
<path d="M65.5002 32.75C71.5293 32.75 76.4168 27.8624 76.4168 21.8333C76.4168 15.8042 71.5293 10.9166 65.5002 10.9166C59.4711 10.9166 54.5835 15.8042 54.5835 21.8333C54.5835 27.8624 59.4711 32.75 65.5002 32.75Z" stroke="white" stroke-width="2" stroke-linecap="round" stroke-linejoin="round"/>
<path d="M109.167 49.125C115.196 49.125 120.083 44.2374 120.083 38.2083C120.083 32.1792 115.196 27.2916 109.167 27.2916C103.138 27.2916 98.25 32.1792 98.25 38.2083C98.25 44.2374 103.138 49.125 109.167 49.125Z" stroke="white" stroke-width="2" stroke-linecap="round" stroke-linejoin="round"/>
<path d="M21.8332 49.125C27.8623 49.125 32.7498 44.2374 32.7498 38.2083C32.7498 32.1792 27.8623 27.2916 21.8332 27.2916C15.8041 27.2916 10.9165 32.1792 10.9165 38.2083C10.9165 44.2374 15.8041 49.125 21.8332 49.125Z" stroke="white" stroke-width="2" stroke-linecap="round" stroke-linejoin="round"/>
</svg>
